<?xml version="1.0" encoding="UTF-8"?>
<!DOCTYPE svg PUBLIC "-//W3C//DTD SVG 1.1//EN" "http://www.w3.org/Graphics/SVG/1.1/DTD/svg11.dtd">
<!-- Creator: CorelDRAW X7 -->
<svg xmlns="http://www.w3.org/2000/svg" xml:space="preserve" width="8.26772in" height="11.6929in" version="1.1" style="shape-rendering:geometricPrecision; text-rendering:geometricPrecision; image-rendering:optimizeQuality; fill-rule:evenodd; clip-rule:evenodd"
viewBox="0 0 8268 11693"
 xmlns:xlink="http://www.w3.org/1999/xlink">
 <defs>
  <style type="text/css">
   <![CDATA[
    .fil6 {fill:#DB353A}
    .fil1 {fill:#005D99}
    .fil8 {fill:#7A96C3;fill-opacity:0.050980}
    .fil7 {fill:#005D99;fill-opacity:0.050980}
    .fil5 {fill:#005D99;fill-opacity:0.101961}
    .fil4 {fill:#005D99;fill-opacity:0.200000}
    .fil3 {fill:#005D99;fill-opacity:0.501961}
    .fil0 {fill:#005D99;fill-opacity:0.701961}
    .fil2 {fill:#005D99;fill-opacity:0.901961}
   ]]>
  </style>
 </defs>
 <g id="Layer_x0020_1">
  <metadata id="CorelCorpID_0Corel-Layer"/>
  <g id="_708207216">
   <polygon class="fil0" points="468,641 737,641 602,417 "/>
   <polygon class="fil1" points="49,58 318,58 184,283 "/>
   <polygon class="fil2" points="468,58 737,58 602,283 "/>
   <polygon class="fil0" points="886,58 1156,58 1021,283 "/>
   <polygon class="fil3" points="1305,58 1574,58 1440,283 "/>
   <polygon class="fil4" points="1724,58 1993,58 1858,283 "/>
   <polygon class="fil5" points="2142,58 2411,58 2277,283 "/>
   <polygon class="fil2" points="259,313 528,313 393,88 "/>
   <polygon class="fil0" points="677,313 946,313 812,88 "/>
   <polygon class="fil3" points="1096,313 1365,313 1230,88 "/>
   <polygon class="fil4" points="1514,313 1783,313 1649,88 "/>
   <polygon class="fil5" points="1933,313 2202,313 2068,88 "/>
   <polygon class="fil2" points="49,641 318,641 184,417 "/>
   <polygon class="fil6" points="886,641 1156,641 1021,417 "/>
   <polygon class="fil4" points="1305,641 1574,641 1440,417 "/>
   <polygon class="fil5" points="1724,641 1993,641 1858,417 "/>
   <polygon class="fil7" points="2142,641 2411,641 2277,417 "/>
   <polygon class="fil2" points="259,387 528,387 393,612 "/>
   <polygon class="fil0" points="677,387 946,387 812,612 "/>
   <polygon class="fil3" points="1096,387 1365,387 1230,612 "/>
   <polygon class="fil4" points="1514,387 1783,387 1649,612 "/>
   <polygon class="fil5" points="1933,387 2202,387 2068,612 "/>
   <polygon class="fil0" points="49,1299 318,1299 184,1075 "/>
   <polygon class="fil2" points="49,716 318,716 184,940 "/>
   <polygon class="fil0" points="468,716 737,716 602,940 "/>
   <polygon class="fil3" points="886,716 1156,716 1021,940 "/>
   <polygon class="fil4" points="1305,716 1574,716 1440,940 "/>
   <polygon class="fil6" points="259,970 528,970 393,746 "/>
   <polygon class="fil3" points="677,970 946,970 812,746 "/>
   <polygon class="fil4" points="1096,970 1365,970 1230,746 "/>
   <polygon class="fil5" points="1514,970 1783,970 1649,746 "/>
   <polygon class="fil8" points="1933,970 2202,970 2068,746 "/>
   <polygon class="fil4" points="886,1299 1156,1299 1021,1075 "/>
   <polygon class="fil5" points="1305,1299 1574,1299 1440,1075 "/>
   <polygon class="fil5" points="1724,1299 1993,1299 1858,1075 "/>
   <polygon class="fil5" points="2142,1299 2411,1299 2277,1075 "/>
   <polygon class="fil0" points="259,1045 528,1045 393,1269 "/>
   <polygon class="fil3" points="677,1045 946,1045 812,1269 "/>
   <polygon class="fil4" points="1096,1045 1365,1045 1230,1269 "/>
   <polygon class="fil5" points="1514,1045 1783,1045 1649,1269 "/>
   <polygon class="fil5" points="1933,1045 2202,1045 2068,1269 "/>
   <polygon class="fil0" points="49,1374 318,1374 184,1598 "/>
   <polygon class="fil3" points="468,1374 737,1374 602,1598 "/>
   <polygon class="fil5" points="886,1374 1156,1374 1021,1598 "/>
   <polygon class="fil5" points="1305,1374 1574,1374 1440,1598 "/>
   <polygon class="fil6" points="259,1628 528,1628 393,1404 "/>
   <polygon class="fil5" points="677,1628 946,1628 812,1404 "/>
   <polygon class="fil5" points="1096,1628 1365,1628 1230,1404 "/>
   <polygon class="fil5" points="1514,1628 1783,1628 1649,1404 "/>
   <polygon class="fil5" points="49,1957 318,1957 184,1733 "/>
   <polygon class="fil5" points="468,1957 737,1957 602,1733 "/>
   <polygon class="fil5" points="886,1957 1156,1957 1021,1733 "/>
   <polygon class="fil5" points="1305,1957 1574,1957 1440,1733 "/>
   <polygon class="fil5" points="259,1703 528,1703 393,1927 "/>
   <polygon class="fil5" points="677,1703 946,1703 812,1927 "/>
   <polygon class="fil5" points="1096,1703 1365,1703 1230,1927 "/>
   <polygon class="fil5" points="1514,1703 1783,1703 1649,1927 "/>
  </g>
 </g>
</svg>
