<?xml version="1.0" encoding="UTF-8"?>
<!DOCTYPE svg PUBLIC "-//W3C//DTD SVG 1.1//EN" "http://www.w3.org/Graphics/SVG/1.1/DTD/svg11.dtd">
<!-- Creator: CorelDRAW X7 -->
<svg xmlns="http://www.w3.org/2000/svg" xml:space="preserve" width="8.26772in" height="11.6929in" version="1.1" style="shape-rendering:geometricPrecision; text-rendering:geometricPrecision; image-rendering:optimizeQuality; fill-rule:evenodd; clip-rule:evenodd"
viewBox="0 0 8268 11693"
 xmlns:xlink="http://www.w3.org/1999/xlink">
 <defs>
  <style type="text/css">
   <![CDATA[
    .fil1 {fill:#D42427}
    .fil0 {fill:#005392}
   ]]>
  </style>
 </defs>
 <g id="Layer_x0020_1">
  <metadata id="CorelCorpID_0Corel-Layer"/>
  <g id="_780177296">
   <polygon class="fil0" points="2986,0 3255,0 3120,224 "/>
   <polygon class="fil0" points="3404,0 3673,0 3539,224 "/>
   <polygon class="fil0" points="2986,583 3255,583 3120,359 "/>
   <polygon class="fil1" points="3404,583 3673,583 3539,359 "/>
   <polygon class="fil0" points="3823,0 4092,0 3958,224 "/>
   <polygon class="fil0" points="3823,583 4092,583 3958,359 "/>
   <polygon class="fil0" points="4242,0 4511,0 4376,224 "/>
   <polygon class="fil0" points="4242,583 4511,583 4376,359 "/>
   <polygon class="fil0" points="4660,0 4929,0 4795,224 "/>
   <polygon class="fil0" points="4660,583 4929,583 4795,359 "/>
   <polygon class="fil0" points="5079,0 5348,0 5213,224 "/>
   <polygon class="fil0" points="5079,583 5348,583 5213,359 "/>
   <polygon class="fil0" points="3195,254 3464,254 3330,30 "/>
   <polygon class="fil0" points="3195,329 3464,329 3330,553 "/>
   <polygon class="fil0" points="3614,254 3883,254 3748,30 "/>
   <polygon class="fil0" points="3614,329 3883,329 3748,553 "/>
   <polygon class="fil0" points="4032,254 4301,254 4167,30 "/>
   <polygon class="fil0" points="4032,329 4301,329 4167,553 "/>
   <polygon class="fil0" points="4451,254 4720,254 4585,30 "/>
   <polygon class="fil0" points="4451,329 4720,329 4585,553 "/>
   <polygon class="fil0" points="4870,254 5139,254 5004,30 "/>
   <polygon class="fil0" points="4870,329 5139,329 5004,553 "/>
   <polygon class="fil0" points="2986,658 3255,658 3120,882 "/>
   <polygon class="fil0" points="3404,658 3673,658 3539,882 "/>
   <polygon class="fil1" points="2986,1241 3255,1241 3120,1017 "/>
   <polygon class="fil0" points="3823,658 4092,658 3958,882 "/>
   <polygon class="fil0" points="3823,1241 4092,1241 3958,1017 "/>
   <polygon class="fil0" points="4242,658 4511,658 4376,882 "/>
   <polygon class="fil0" points="4242,1241 4511,1241 4376,1017 "/>
   <polygon class="fil0" points="4660,658 4929,658 4795,882 "/>
   <polygon class="fil0" points="4660,1241 4929,1241 4795,1017 "/>
   <polygon class="fil0" points="5079,658 5348,658 5213,882 "/>
   <polygon class="fil0" points="5079,1241 5348,1241 5213,1017 "/>
   <polygon class="fil0" points="3195,912 3464,912 3330,688 "/>
   <polygon class="fil0" points="3195,987 3464,987 3330,1211 "/>
   <polygon class="fil0" points="3614,912 3883,912 3748,688 "/>
   <polygon class="fil0" points="3614,987 3883,987 3748,1211 "/>
   <polygon class="fil0" points="4032,912 4301,912 4167,688 "/>
   <polygon class="fil0" points="4032,987 4301,987 4167,1211 "/>
   <polygon class="fil0" points="4451,912 4720,912 4585,688 "/>
   <polygon class="fil0" points="4451,987 4720,987 4585,1211 "/>
   <polygon class="fil1" points="4870,912 5139,912 5004,688 "/>
   <polygon class="fil0" points="4870,987 5139,987 5004,1211 "/>
   <polygon class="fil0" points="2986,1316 3255,1316 3120,1540 "/>
   <polygon class="fil0" points="3404,1316 3673,1316 3539,1540 "/>
   <polygon class="fil0" points="2986,1899 3255,1899 3120,1674 "/>
   <polygon class="fil0" points="3404,1899 3673,1899 3539,1674 "/>
   <polygon class="fil0" points="3823,1316 4092,1316 3958,1540 "/>
   <polygon class="fil0" points="3823,1899 4092,1899 3958,1674 "/>
   <polygon class="fil0" points="4242,1316 4511,1316 4376,1540 "/>
   <polygon class="fil0" points="4242,1899 4511,1899 4376,1674 "/>
   <polygon class="fil0" points="4660,1899 4929,1899 4795,1674 "/>
   <polygon class="fil0" points="5079,1316 5348,1316 5213,1540 "/>
   <polygon class="fil0" points="5079,1899 5348,1899 5213,1674 "/>
   <polygon class="fil0" points="3195,1570 3464,1570 3330,1346 "/>
   <polygon class="fil0" points="3195,1645 3464,1645 3330,1869 "/>
   <polygon class="fil0" points="3614,1570 3883,1570 3748,1346 "/>
   <polygon class="fil0" points="3614,1645 3883,1645 3748,1869 "/>
   <polygon class="fil0" points="4032,1570 4301,1570 4167,1346 "/>
   <polygon class="fil0" points="4032,1645 4301,1645 4167,1869 "/>
   <polygon class="fil0" points="4451,1570 4720,1570 4585,1346 "/>
   <polygon class="fil0" points="4451,1645 4720,1645 4585,1869 "/>
   <polygon class="fil0" points="4870,1570 5139,1570 5004,1346 "/>
   <polygon class="fil0" points="4870,1645 5139,1645 5004,1869 "/>
   <polygon class="fil0" points="2986,1973 3255,1973 3120,2198 "/>
   <polygon class="fil0" points="3404,1973 3673,1973 3539,2198 "/>
   <polygon class="fil0" points="2986,2557 3255,2557 3120,2332 "/>
   <polygon class="fil0" points="3404,2557 3673,2557 3539,2332 "/>
   <polygon class="fil0" points="3823,1973 4092,1973 3958,2198 "/>
   <polygon class="fil0" points="3823,2557 4092,2557 3958,2332 "/>
   <polygon class="fil0" points="4242,1973 4511,1973 4376,2198 "/>
   <polygon class="fil0" points="4242,2557 4511,2557 4376,2332 "/>
   <polygon class="fil0" points="4660,1973 4929,1973 4795,2198 "/>
   <polygon class="fil0" points="5079,1973 5348,1973 5213,2198 "/>
   <polygon class="fil0" points="5079,2557 5348,2557 5213,2332 "/>
   <polygon class="fil0" points="3195,2228 3464,2228 3330,2003 "/>
   <polygon class="fil0" points="3195,2302 3464,2302 3330,2527 "/>
   <polygon class="fil0" points="3614,2228 3883,2228 3748,2003 "/>
   <polygon class="fil0" points="3614,2302 3883,2302 3748,2527 "/>
   <polygon class="fil0" points="4032,2228 4301,2228 4167,2003 "/>
   <polygon class="fil0" points="4032,2302 4301,2302 4167,2527 "/>
   <polygon class="fil1" points="4451,2228 4720,2228 4585,2003 "/>
   <polygon class="fil0" points="4451,2302 4720,2302 4585,2527 "/>
   <polygon class="fil0" points="4870,2228 5139,2228 5004,2003 "/>
   <polygon class="fil0" points="4870,2302 5139,2302 5004,2527 "/>
   <polygon class="fil0" points="2986,2631 3255,2631 3120,2856 "/>
   <polygon class="fil0" points="3404,2631 3673,2631 3539,2856 "/>
   <polygon class="fil0" points="2986,3214 3255,3214 3120,2990 "/>
   <polygon class="fil0" points="3404,3214 3673,3214 3539,2990 "/>
   <polygon class="fil0" points="3823,2631 4092,2631 3958,2856 "/>
   <polygon class="fil0" points="3823,3214 4092,3214 3958,2990 "/>
   <polygon class="fil0" points="4242,2631 4511,2631 4376,2856 "/>
   <polygon class="fil0" points="4242,3214 4511,3214 4376,2990 "/>
   <polygon class="fil0" points="4660,2631 4929,2631 4795,2856 "/>
   <polygon class="fil0" points="4660,3214 4929,3214 4795,2990 "/>
   <polygon class="fil0" points="5079,2631 5348,2631 5213,2856 "/>
   <polygon class="fil0" points="5079,3214 5348,3214 5213,2990 "/>
   <polygon class="fil1" points="3195,2885 3464,2885 3330,2661 "/>
   <polygon class="fil0" points="3195,2960 3464,2960 3330,3184 "/>
   <polygon class="fil0" points="3614,2885 3883,2885 3748,2661 "/>
   <polygon class="fil0" points="4032,2885 4301,2885 4167,2661 "/>
   <polygon class="fil0" points="4032,2960 4301,2960 4167,3184 "/>
   <polygon class="fil0" points="4451,2885 4720,2885 4585,2661 "/>
   <polygon class="fil0" points="4451,2960 4720,2960 4585,3184 "/>
   <polygon class="fil0" points="4870,2885 5139,2885 5004,2661 "/>
   <polygon class="fil0" points="4870,2960 5139,2960 5004,3184 "/>
   <polygon class="fil0" points="2986,3289 3255,3289 3120,3513 "/>
   <polygon class="fil0" points="3404,3289 3673,3289 3539,3513 "/>
   <polygon class="fil0" points="2986,3872 3255,3872 3120,3648 "/>
   <polygon class="fil0" points="3404,3872 3673,3872 3539,3648 "/>
   <polygon class="fil0" points="3823,3289 4092,3289 3958,3513 "/>
   <polygon class="fil0" points="3823,3872 4092,3872 3958,3648 "/>
   <polygon class="fil0" points="4242,3289 4511,3289 4376,3513 "/>
   <polygon class="fil0" points="4242,3872 4511,3872 4376,3648 "/>
   <polygon class="fil0" points="4660,3289 4929,3289 4795,3513 "/>
   <polygon class="fil0" points="4660,3872 4929,3872 4795,3648 "/>
   <polygon class="fil0" points="5079,3289 5348,3289 5213,3513 "/>
   <polygon class="fil0" points="5079,3872 5348,3872 5213,3648 "/>
   <polygon class="fil0" points="3195,3543 3464,3543 3330,3319 "/>
   <polygon class="fil0" points="3195,3618 3464,3618 3330,3842 "/>
   <polygon class="fil0" points="3614,3543 3883,3543 3748,3319 "/>
   <polygon class="fil0" points="3614,3618 3883,3618 3748,3842 "/>
   <polygon class="fil0" points="4032,3543 4301,3543 4167,3319 "/>
   <polygon class="fil0" points="4032,3618 4301,3618 4167,3842 "/>
   <polygon class="fil0" points="4451,3543 4720,3543 4585,3319 "/>
   <polygon class="fil0" points="4451,3618 4720,3618 4585,3842 "/>
   <polygon class="fil1" points="4870,3543 5139,3543 5004,3319 "/>
   <polygon class="fil0" points="4870,3618 5139,3618 5004,3842 "/>
   <polygon class="fil0" points="2986,3947 3255,3947 3120,4171 "/>
   <polygon class="fil0" points="3404,3947 3673,3947 3539,4171 "/>
   <polygon class="fil0" points="2986,4530 3255,4530 3120,4306 "/>
   <polygon class="fil0" points="3404,4530 3673,4530 3539,4306 "/>
   <polygon class="fil0" points="3823,3947 4092,3947 3958,4171 "/>
   <polygon class="fil0" points="3823,4530 4092,4530 3958,4306 "/>
   <polygon class="fil0" points="4242,3947 4511,3947 4376,4171 "/>
   <polygon class="fil0" points="4242,4530 4511,4530 4376,4306 "/>
   <polygon class="fil0" points="4660,3947 4929,3947 4795,4171 "/>
   <polygon class="fil0" points="4660,4530 4929,4530 4795,4306 "/>
   <polygon class="fil0" points="5079,3947 5348,3947 5213,4171 "/>
   <polygon class="fil0" points="5079,4530 5348,4530 5213,4306 "/>
   <polygon class="fil0" points="3195,4201 3464,4201 3330,3977 "/>
   <polygon class="fil0" points="3195,4276 3464,4276 3330,4500 "/>
   <polygon class="fil0" points="3614,4201 3883,4201 3748,3977 "/>
   <polygon class="fil0" points="3614,4276 3883,4276 3748,4500 "/>
   <polygon class="fil1" points="4032,4201 4301,4201 4167,3977 "/>
   <polygon class="fil0" points="4032,4276 4301,4276 4167,4500 "/>
   <polygon class="fil0" points="4451,4201 4720,4201 4585,3977 "/>
   <polygon class="fil0" points="4451,4276 4720,4276 4585,4500 "/>
   <polygon class="fil0" points="4870,4276 5139,4276 5004,4500 "/>
   <polygon class="fil0" points="2986,7163 3255,7163 3120,7387 "/>
   <polygon class="fil0" points="3404,7163 3673,7163 3539,7387 "/>
   <polygon class="fil0" points="2986,7746 3255,7746 3120,7522 "/>
   <polygon class="fil0" points="3404,7746 3673,7746 3539,7522 "/>
   <polygon class="fil0" points="3823,7163 4092,7163 3958,7387 "/>
   <polygon class="fil0" points="3823,7746 4092,7746 3958,7522 "/>
   <polygon class="fil0" points="4242,7163 4511,7163 4376,7387 "/>
   <polygon class="fil0" points="4242,7746 4511,7746 4376,7522 "/>
   <polygon class="fil0" points="4660,7163 4929,7163 4795,7387 "/>
   <polygon class="fil0" points="4660,7746 4929,7746 4795,7522 "/>
   <polygon class="fil0" points="5079,7163 5348,7163 5213,7387 "/>
   <polygon class="fil0" points="5079,7746 5348,7746 5213,7522 "/>
   <polygon class="fil0" points="3195,7417 3464,7417 3330,7193 "/>
   <polygon class="fil0" points="3195,7492 3464,7492 3330,7716 "/>
   <polygon class="fil0" points="3614,7417 3883,7417 3748,7193 "/>
   <polygon class="fil0" points="3614,7492 3883,7492 3748,7716 "/>
   <polygon class="fil1" points="4032,7417 4301,7417 4167,7193 "/>
   <polygon class="fil0" points="4032,7492 4301,7492 4167,7716 "/>
   <polygon class="fil0" points="4451,7417 4720,7417 4585,7193 "/>
   <polygon class="fil0" points="4451,7492 4720,7492 4585,7716 "/>
   <polygon class="fil0" points="4870,7417 5139,7417 5004,7193 "/>
   <polygon class="fil0" points="4870,7492 5139,7492 5004,7716 "/>
   <polygon class="fil0" points="2986,7821 3255,7821 3120,8045 "/>
   <polygon class="fil0" points="3404,7821 3673,7821 3539,8045 "/>
   <polygon class="fil0" points="2986,8404 3255,8404 3120,8180 "/>
   <polygon class="fil0" points="3404,8404 3673,8404 3539,8180 "/>
   <polygon class="fil0" points="3823,8404 4092,8404 3958,8180 "/>
   <polygon class="fil0" points="4242,7821 4511,7821 4376,8045 "/>
   <polygon class="fil0" points="4242,8404 4511,8404 4376,8180 "/>
   <polygon class="fil0" points="4660,7821 4929,7821 4795,8045 "/>
   <polygon class="fil1" points="4660,8404 4929,8404 4795,8180 "/>
   <polygon class="fil0" points="5079,7821 5348,7821 5213,8045 "/>
   <polygon class="fil0" points="5079,8404 5348,8404 5213,8180 "/>
   <polygon class="fil0" points="3195,8075 3464,8075 3330,7851 "/>
   <polygon class="fil0" points="3195,8150 3464,8150 3330,8374 "/>
   <polygon class="fil0" points="3614,8075 3883,8075 3748,7851 "/>
   <polygon class="fil0" points="3614,8150 3883,8150 3748,8374 "/>
   <polygon class="fil0" points="4032,8075 4301,8075 4167,7851 "/>
   <polygon class="fil0" points="4032,8150 4301,8150 4167,8374 "/>
   <polygon class="fil0" points="4451,8075 4720,8075 4585,7851 "/>
   <polygon class="fil0" points="4451,8150 4720,8150 4585,8374 "/>
   <polygon class="fil0" points="4870,8075 5139,8075 5004,7851 "/>
   <polygon class="fil0" points="4870,8150 5139,8150 5004,8374 "/>
   <polygon class="fil0" points="2986,8479 3255,8479 3120,8703 "/>
   <polygon class="fil0" points="3404,8479 3673,8479 3539,8703 "/>
   <polygon class="fil1" points="2986,9062 3255,9062 3120,8837 "/>
   <polygon class="fil0" points="3404,9062 3673,9062 3539,8837 "/>
   <polygon class="fil0" points="3823,8479 4092,8479 3958,8703 "/>
   <polygon class="fil0" points="3823,9062 4092,9062 3958,8837 "/>
   <polygon class="fil0" points="4242,8479 4511,8479 4376,8703 "/>
   <polygon class="fil0" points="4242,9062 4511,9062 4376,8837 "/>
   <polygon class="fil0" points="4660,8479 4929,8479 4795,8703 "/>
   <polygon class="fil0" points="4660,9062 4929,9062 4795,8837 "/>
   <polygon class="fil0" points="5079,8479 5348,8479 5213,8703 "/>
   <polygon class="fil0" points="5079,9062 5348,9062 5213,8837 "/>
   <polygon class="fil0" points="3195,8733 3464,8733 3330,8508 "/>
   <polygon class="fil0" points="3195,8807 3464,8807 3330,9032 "/>
   <polygon class="fil0" points="3614,8733 3883,8733 3748,8508 "/>
   <polygon class="fil0" points="3614,8807 3883,8807 3748,9032 "/>
   <polygon class="fil0" points="4032,8733 4301,8733 4167,8508 "/>
   <polygon class="fil0" points="4032,8807 4301,8807 4167,9032 "/>
   <polygon class="fil0" points="4451,8733 4720,8733 4585,8508 "/>
   <polygon class="fil0" points="4870,8733 5139,8733 5004,8508 "/>
   <polygon class="fil0" points="4870,8807 5139,8807 5004,9032 "/>
   <polygon class="fil0" points="2986,9136 3255,9136 3120,9361 "/>
   <polygon class="fil0" points="3404,9136 3673,9136 3539,9361 "/>
   <polygon class="fil0" points="2986,9719 3255,9719 3120,9495 "/>
   <polygon class="fil0" points="3404,9719 3673,9719 3539,9495 "/>
   <polygon class="fil0" points="3823,9136 4092,9136 3958,9361 "/>
   <polygon class="fil0" points="3823,9719 4092,9719 3958,9495 "/>
   <polygon class="fil0" points="4242,9136 4511,9136 4376,9361 "/>
   <polygon class="fil0" points="4242,9719 4511,9719 4376,9495 "/>
   <polygon class="fil0" points="4660,9136 4929,9136 4795,9361 "/>
   <polygon class="fil0" points="4660,9719 4929,9719 4795,9495 "/>
   <polygon class="fil0" points="5079,9136 5348,9136 5213,9361 "/>
   <polygon class="fil0" points="5079,9719 5348,9719 5213,9495 "/>
   <polygon class="fil0" points="3195,9391 3464,9391 3330,9166 "/>
   <polygon class="fil0" points="3195,9465 3464,9465 3330,9690 "/>
   <polygon class="fil0" points="3614,9391 3883,9391 3748,9166 "/>
   <polygon class="fil0" points="3614,9465 3883,9465 3748,9690 "/>
   <polygon class="fil0" points="4032,9391 4301,9391 4167,9166 "/>
   <polygon class="fil0" points="4032,9465 4301,9465 4167,9690 "/>
   <polygon class="fil0" points="4451,9391 4720,9391 4585,9166 "/>
   <polygon class="fil0" points="4451,9465 4720,9465 4585,9690 "/>
   <polygon class="fil0" points="4870,9391 5139,9391 5004,9166 "/>
   <polygon class="fil0" points="4870,9465 5139,9465 5004,9690 "/>
   <polygon class="fil0" points="2986,9794 3255,9794 3120,10018 "/>
   <polygon class="fil0" points="3404,9794 3673,9794 3539,10018 "/>
   <polygon class="fil0" points="2986,10377 3255,10377 3120,10153 "/>
   <polygon class="fil0" points="3404,10377 3673,10377 3539,10153 "/>
   <polygon class="fil0" points="3823,9794 4092,9794 3958,10018 "/>
   <polygon class="fil0" points="4242,9794 4511,9794 4376,10018 "/>
   <polygon class="fil0" points="4242,10377 4511,10377 4376,10153 "/>
   <polygon class="fil0" points="4660,9794 4929,9794 4795,10018 "/>
   <polygon class="fil0" points="4660,10377 4929,10377 4795,10153 "/>
   <polygon class="fil0" points="5079,9794 5348,9794 5213,10018 "/>
   <polygon class="fil0" points="5079,10377 5348,10377 5213,10153 "/>
   <polygon class="fil0" points="3195,10048 3464,10048 3330,9824 "/>
   <polygon class="fil0" points="3195,10123 3464,10123 3330,10347 "/>
   <polygon class="fil1" points="3614,10048 3883,10048 3748,9824 "/>
   <polygon class="fil0" points="3614,10123 3883,10123 3748,10347 "/>
   <polygon class="fil0" points="4032,10048 4301,10048 4167,9824 "/>
   <polygon class="fil0" points="4032,10123 4301,10123 4167,10347 "/>
   <polygon class="fil0" points="4451,10048 4720,10048 4585,9824 "/>
   <polygon class="fil0" points="4451,10123 4720,10123 4585,10347 "/>
   <polygon class="fil0" points="4870,10048 5139,10048 5004,9824 "/>
   <polygon class="fil0" points="4870,10123 5139,10123 5004,10347 "/>
   <polygon class="fil0" points="2986,10452 3255,10452 3120,10676 "/>
   <polygon class="fil0" points="3404,10452 3673,10452 3539,10676 "/>
   <polygon class="fil0" points="2986,11035 3255,11035 3120,10811 "/>
   <polygon class="fil0" points="3404,11035 3673,11035 3539,10811 "/>
   <polygon class="fil0" points="3823,10452 4092,10452 3958,10676 "/>
   <polygon class="fil0" points="3823,11035 4092,11035 3958,10811 "/>
   <polygon class="fil0" points="4242,10452 4511,10452 4376,10676 "/>
   <polygon class="fil0" points="4242,11035 4511,11035 4376,10811 "/>
   <polygon class="fil0" points="4660,10452 4929,10452 4795,10676 "/>
   <polygon class="fil1" points="4660,11035 4929,11035 4795,10811 "/>
   <polygon class="fil0" points="5079,10452 5348,10452 5213,10676 "/>
   <polygon class="fil0" points="5079,11035 5348,11035 5213,10811 "/>
   <polygon class="fil0" points="3195,10706 3464,10706 3330,10482 "/>
   <polygon class="fil0" points="3195,10781 3464,10781 3330,11005 "/>
   <polygon class="fil0" points="3614,10706 3883,10706 3748,10482 "/>
   <polygon class="fil0" points="3614,10781 3883,10781 3748,11005 "/>
   <polygon class="fil0" points="4032,10706 4301,10706 4167,10482 "/>
   <polygon class="fil0" points="4032,10781 4301,10781 4167,11005 "/>
   <polygon class="fil0" points="4451,10706 4720,10706 4585,10482 "/>
   <polygon class="fil0" points="4451,10781 4720,10781 4585,11005 "/>
   <polygon class="fil0" points="4870,10781 5139,10781 5004,11005 "/>
   <polygon class="fil0" points="2986,11110 3255,11110 3120,11334 "/>
   <polygon class="fil0" points="3404,11110 3673,11110 3539,11334 "/>
   <polygon class="fil0" points="2986,11693 3255,11693 3120,11469 "/>
   <polygon class="fil0" points="3404,11693 3673,11693 3539,11469 "/>
   <polygon class="fil0" points="3823,11110 4092,11110 3958,11334 "/>
   <polygon class="fil0" points="3823,11693 4092,11693 3958,11469 "/>
   <polygon class="fil0" points="4242,11110 4511,11110 4376,11334 "/>
   <polygon class="fil0" points="4242,11693 4511,11693 4376,11469 "/>
   <polygon class="fil0" points="4660,11110 4929,11110 4795,11334 "/>
   <polygon class="fil0" points="4660,11693 4929,11693 4795,11469 "/>
   <polygon class="fil0" points="5079,11110 5348,11110 5213,11334 "/>
   <polygon class="fil0" points="5079,11693 5348,11693 5213,11469 "/>
   <polygon class="fil0" points="3195,11364 3464,11364 3330,11140 "/>
   <polygon class="fil0" points="3195,11439 3464,11439 3330,11663 "/>
   <polygon class="fil0" points="3614,11364 3883,11364 3748,11140 "/>
   <polygon class="fil0" points="3614,11439 3883,11439 3748,11663 "/>
   <polygon class="fil0" points="4032,11439 4301,11439 4167,11663 "/>
   <polygon class="fil0" points="4451,11364 4720,11364 4585,11140 "/>
   <polygon class="fil0" points="4451,11439 4720,11439 4585,11663 "/>
   <polygon class="fil0" points="4870,11364 5139,11364 5004,11140 "/>
   <polygon class="fil0" points="4870,11439 5139,11439 5004,11663 "/>
  </g>
 </g>
</svg>
