<?xml version="1.0" encoding="UTF-8"?>
<!DOCTYPE svg PUBLIC "-//W3C//DTD SVG 1.1//EN" "http://www.w3.org/Graphics/SVG/1.1/DTD/svg11.dtd">
<!-- Creator: CorelDRAW X7 -->
<svg xmlns="http://www.w3.org/2000/svg" xml:space="preserve" width="8.26772in" height="11.6929in" version="1.1" style="shape-rendering:geometricPrecision; text-rendering:geometricPrecision; image-rendering:optimizeQuality; fill-rule:evenodd; clip-rule:evenodd"
viewBox="0 0 8268 11693"
 xmlns:xlink="http://www.w3.org/1999/xlink">
 <defs>
  <style type="text/css">
   <![CDATA[
    .fil7 {fill:#DB353A}
    .fil1 {fill:#005D99}
    .fil8 {fill:#7A96C3;fill-opacity:0.050980}
    .fil6 {fill:#005D99;fill-opacity:0.050980}
    .fil5 {fill:#005D99;fill-opacity:0.101961}
    .fil4 {fill:#005D99;fill-opacity:0.200000}
    .fil3 {fill:#005D99;fill-opacity:0.501961}
    .fil0 {fill:#005D99;fill-opacity:0.701961}
    .fil2 {fill:#005D99;fill-opacity:0.901961}
   ]]>
  </style>
 </defs>
 <g id="Layer_x0020_1">
  <metadata id="CorelCorpID_0Corel-Layer"/>
  <g id="_590221776">
   <polygon class="fil0" points="7815,11110 7546,11110 7681,11334 "/>
   <polygon class="fil1" points="8234,11693 7965,11693 8099,11469 "/>
   <polygon class="fil2" points="7815,11693 7546,11693 7681,11469 "/>
   <polygon class="fil0" points="7397,11693 7128,11693 7262,11469 "/>
   <polygon class="fil3" points="6978,11693 6709,11693 6844,11469 "/>
   <polygon class="fil4" points="6559,11693 6290,11693 6425,11469 "/>
   <polygon class="fil5" points="6141,11693 5872,11693 6006,11469 "/>
   <polygon class="fil2" points="8025,11439 7755,11439 7890,11663 "/>
   <polygon class="fil0" points="7606,11439 7337,11439 7471,11663 "/>
   <polygon class="fil3" points="7187,11439 6918,11439 7053,11663 "/>
   <polygon class="fil4" points="6769,11439 6500,11439 6634,11663 "/>
   <polygon class="fil5" points="6350,11439 6081,11439 6216,11663 "/>
   <polygon class="fil2" points="8234,11110 7965,11110 8099,11334 "/>
   <polygon class="fil3" points="7397,11110 7128,11110 7262,11334 "/>
   <polygon class="fil4" points="6978,11110 6709,11110 6844,11334 "/>
   <polygon class="fil5" points="6559,11110 6290,11110 6425,11334 "/>
   <polygon class="fil6" points="6141,11110 5872,11110 6006,11334 "/>
   <polygon class="fil7" points="8025,11364 7755,11364 7890,11140 "/>
   <polygon class="fil0" points="7606,11364 7337,11364 7471,11140 "/>
   <polygon class="fil3" points="7187,11364 6918,11364 7053,11140 "/>
   <polygon class="fil7" points="6769,11364 6500,11364 6634,11140 "/>
   <polygon class="fil5" points="6350,11364 6081,11364 6216,11140 "/>
   <polygon class="fil0" points="8234,10452 7965,10452 8099,10676 "/>
   <polygon class="fil2" points="8234,11035 7965,11035 8099,10811 "/>
   <polygon class="fil0" points="7815,11035 7546,11035 7681,10811 "/>
   <polygon class="fil3" points="7397,11035 7128,11035 7262,10811 "/>
   <polygon class="fil4" points="6978,11035 6709,11035 6844,10811 "/>
   <polygon class="fil0" points="8025,10781 7755,10781 7890,11005 "/>
   <polygon class="fil3" points="7606,10781 7337,10781 7471,11005 "/>
   <polygon class="fil4" points="7187,10781 6918,10781 7053,11005 "/>
   <polygon class="fil5" points="6769,10781 6500,10781 6634,11005 "/>
   <polygon class="fil8" points="6350,10781 6081,10781 6216,11005 "/>
   <polygon class="fil4" points="7397,10452 7128,10452 7262,10676 "/>
   <polygon class="fil5" points="6978,10452 6709,10452 6844,10676 "/>
   <polygon class="fil5" points="6559,10452 6290,10452 6425,10676 "/>
   <polygon class="fil5" points="6141,10452 5872,10452 6006,10676 "/>
   <polygon class="fil0" points="8025,10706 7755,10706 7890,10482 "/>
   <polygon class="fil7" points="7606,10706 7337,10706 7471,10482 "/>
   <polygon class="fil4" points="7187,10706 6918,10706 7053,10482 "/>
   <polygon class="fil5" points="6769,10706 6500,10706 6634,10482 "/>
   <polygon class="fil5" points="6350,10706 6081,10706 6216,10482 "/>
   <polygon class="fil0" points="8234,10377 7965,10377 8099,10153 "/>
   <polygon class="fil3" points="7815,10377 7546,10377 7681,10153 "/>
   <polygon class="fil5" points="7397,10377 7128,10377 7262,10153 "/>
   <polygon class="fil5" points="6978,10377 6709,10377 6844,10153 "/>
   <polygon class="fil5" points="8025,10123 7755,10123 7890,10347 "/>
   <polygon class="fil5" points="7606,10123 7337,10123 7471,10347 "/>
   <polygon class="fil5" points="7187,10123 6918,10123 7053,10347 "/>
   <polygon class="fil5" points="6769,10123 6500,10123 6634,10347 "/>
   <polygon class="fil5" points="6350,10123 6081,10123 6216,10347 "/>
   <polygon class="fil5" points="8234,9794 7965,9794 8099,10018 "/>
   <polygon class="fil5" points="7815,9794 7546,9794 7681,10018 "/>
   <polygon class="fil5" points="7397,9794 7128,9794 7262,10018 "/>
   <polygon class="fil5" points="6978,9794 6709,9794 6844,10018 "/>
   <polygon class="fil5" points="8025,10048 7755,10048 7890,9824 "/>
   <polygon class="fil5" points="7606,10048 7337,10048 7471,9824 "/>
   <polygon class="fil5" points="7187,10048 6918,10048 7053,9824 "/>
   <polygon class="fil5" points="6769,10048 6500,10048 6634,9824 "/>
   <polygon class="fil5" points="6350,10048 6081,10048 6216,9824 "/>
  </g>
 </g>
</svg>
