<?xml version="1.0" encoding="UTF-8"?>
<!DOCTYPE svg PUBLIC "-//W3C//DTD SVG 1.1//EN" "http://www.w3.org/Graphics/SVG/1.1/DTD/svg11.dtd">
<!-- Creator: CorelDRAW X7 -->
<svg xmlns="http://www.w3.org/2000/svg" xml:space="preserve" width="8.26772in" height="11.6929in" version="1.1" style="shape-rendering:geometricPrecision; text-rendering:geometricPrecision; image-rendering:optimizeQuality; fill-rule:evenodd; clip-rule:evenodd"
viewBox="0 0 8268 11693"
 xmlns:xlink="http://www.w3.org/1999/xlink">
 <defs>
  <style type="text/css">
   <![CDATA[
    .fil6 {fill:#D42427}
    .fil1 {fill:#005392}
    .fil8 {fill:#849CC8;fill-opacity:0.050980}
    .fil7 {fill:#005392;fill-opacity:0.050980}
    .fil5 {fill:#005392;fill-opacity:0.101961}
    .fil4 {fill:#005392;fill-opacity:0.200000}
    .fil3 {fill:#005392;fill-opacity:0.501961}
    .fil0 {fill:#005392;fill-opacity:0.701961}
    .fil2 {fill:#005392;fill-opacity:0.901961}
   ]]>
  </style>
 </defs>
 <g id="Layer_x0020_1">
  <metadata id="CorelCorpID_0Corel-Layer"/>
  <g id="_772281824">
   <polygon class="fil0" points="438,583 707,583 573,359 "/>
   <polygon class="fil1" points="19,0 289,0 154,224 "/>
   <polygon class="fil2" points="438,0 707,0 573,224 "/>
   <polygon class="fil0" points="857,0 1126,0 991,224 "/>
   <polygon class="fil3" points="1275,0 1544,0 1410,224 "/>
   <polygon class="fil4" points="1694,0 1963,0 1828,224 "/>
   <polygon class="fil5" points="2113,0 2382,0 2247,224 "/>
   <polygon class="fil2" points="229,254 498,254 363,30 "/>
   <polygon class="fil0" points="647,254 916,254 782,30 "/>
   <polygon class="fil3" points="1066,254 1335,254 1201,30 "/>
   <polygon class="fil4" points="1485,254 1754,254 1619,30 "/>
   <polygon class="fil5" points="1903,254 2172,254 2038,30 "/>
   <polygon class="fil2" points="19,583 289,583 154,359 "/>
   <polygon class="fil6" points="857,583 1126,583 991,359 "/>
   <polygon class="fil4" points="1275,583 1544,583 1410,359 "/>
   <polygon class="fil5" points="1694,583 1963,583 1828,359 "/>
   <polygon class="fil7" points="2113,583 2382,583 2247,359 "/>
   <polygon class="fil2" points="229,329 498,329 363,553 "/>
   <polygon class="fil0" points="647,329 916,329 782,553 "/>
   <polygon class="fil3" points="1066,329 1335,329 1201,553 "/>
   <polygon class="fil4" points="1485,329 1754,329 1619,553 "/>
   <polygon class="fil5" points="1903,329 2172,329 2038,553 "/>
   <polygon class="fil0" points="19,1241 289,1241 154,1017 "/>
   <polygon class="fil2" points="19,658 289,658 154,882 "/>
   <polygon class="fil0" points="438,658 707,658 573,882 "/>
   <polygon class="fil3" points="857,658 1126,658 991,882 "/>
   <polygon class="fil4" points="1275,658 1544,658 1410,882 "/>
   <polygon class="fil6" points="229,912 498,912 363,688 "/>
   <polygon class="fil3" points="647,912 916,912 782,688 "/>
   <polygon class="fil4" points="1066,912 1335,912 1201,688 "/>
   <polygon class="fil5" points="1485,912 1754,912 1619,688 "/>
   <polygon class="fil8" points="1903,912 2172,912 2038,688 "/>
   <polygon class="fil4" points="857,1241 1126,1241 991,1017 "/>
   <polygon class="fil5" points="1275,1241 1544,1241 1410,1017 "/>
   <polygon class="fil5" points="1694,1241 1963,1241 1828,1017 "/>
   <polygon class="fil5" points="2113,1241 2382,1241 2247,1017 "/>
   <polygon class="fil0" points="229,987 498,987 363,1211 "/>
   <polygon class="fil3" points="647,987 916,987 782,1211 "/>
   <polygon class="fil4" points="1066,987 1335,987 1201,1211 "/>
   <polygon class="fil5" points="1485,987 1754,987 1619,1211 "/>
   <polygon class="fil5" points="1903,987 2172,987 2038,1211 "/>
   <polygon class="fil0" points="19,1316 289,1316 154,1540 "/>
   <polygon class="fil3" points="438,1316 707,1316 573,1540 "/>
   <polygon class="fil5" points="857,1316 1126,1316 991,1540 "/>
   <polygon class="fil5" points="1275,1316 1544,1316 1410,1540 "/>
   <polygon class="fil6" points="229,1570 498,1570 363,1346 "/>
   <polygon class="fil5" points="647,1570 916,1570 782,1346 "/>
   <polygon class="fil5" points="1066,1570 1335,1570 1201,1346 "/>
   <polygon class="fil5" points="1485,1570 1754,1570 1619,1346 "/>
   <polygon class="fil5" points="19,1899 289,1899 154,1674 "/>
   <polygon class="fil5" points="438,1899 707,1899 573,1674 "/>
   <polygon class="fil5" points="857,1899 1126,1899 991,1674 "/>
   <polygon class="fil5" points="1275,1899 1544,1899 1410,1674 "/>
   <polygon class="fil5" points="229,1645 498,1645 363,1869 "/>
   <polygon class="fil5" points="647,1645 916,1645 782,1869 "/>
   <polygon class="fil5" points="1066,1645 1335,1645 1201,1869 "/>
   <polygon class="fil5" points="1485,1645 1754,1645 1619,1869 "/>
  </g>
  <g id="_771073568">
   <polygon class="fil0" points="7826,11110 7557,11110 7691,11334 "/>
   <polygon class="fil1" points="8244,11693 7975,11693 8110,11469 "/>
   <polygon class="fil2" points="7826,11693 7557,11693 7691,11469 "/>
   <polygon class="fil0" points="7407,11693 7138,11693 7273,11469 "/>
   <polygon class="fil3" points="6989,11693 6719,11693 6854,11469 "/>
   <polygon class="fil4" points="6570,11693 6301,11693 6435,11469 "/>
   <polygon class="fil5" points="6151,11693 5882,11693 6017,11469 "/>
   <polygon class="fil2" points="8035,11439 7766,11439 7901,11663 "/>
   <polygon class="fil0" points="7616,11439 7347,11439 7482,11663 "/>
   <polygon class="fil3" points="7198,11439 6929,11439 7063,11663 "/>
   <polygon class="fil4" points="6779,11439 6510,11439 6645,11663 "/>
   <polygon class="fil5" points="6361,11439 6092,11439 6226,11663 "/>
   <polygon class="fil2" points="8244,11110 7975,11110 8110,11334 "/>
   <polygon class="fil3" points="7407,11110 7138,11110 7273,11334 "/>
   <polygon class="fil4" points="6989,11110 6719,11110 6854,11334 "/>
   <polygon class="fil5" points="6570,11110 6301,11110 6435,11334 "/>
   <polygon class="fil7" points="6151,11110 5882,11110 6017,11334 "/>
   <polygon class="fil6" points="8035,11364 7766,11364 7901,11140 "/>
   <polygon class="fil0" points="7616,11364 7347,11364 7482,11140 "/>
   <polygon class="fil3" points="7198,11364 6929,11364 7063,11140 "/>
   <polygon class="fil6" points="6779,11364 6510,11364 6645,11140 "/>
   <polygon class="fil5" points="6361,11364 6092,11364 6226,11140 "/>
   <polygon class="fil0" points="8244,10452 7975,10452 8110,10676 "/>
   <polygon class="fil2" points="8244,11035 7975,11035 8110,10811 "/>
   <polygon class="fil0" points="7826,11035 7557,11035 7691,10811 "/>
   <polygon class="fil3" points="7407,11035 7138,11035 7273,10811 "/>
   <polygon class="fil4" points="6989,11035 6719,11035 6854,10811 "/>
   <polygon class="fil0" points="8035,10781 7766,10781 7901,11005 "/>
   <polygon class="fil3" points="7616,10781 7347,10781 7482,11005 "/>
   <polygon class="fil4" points="7198,10781 6929,10781 7063,11005 "/>
   <polygon class="fil5" points="6779,10781 6510,10781 6645,11005 "/>
   <polygon class="fil8" points="6361,10781 6092,10781 6226,11005 "/>
   <polygon class="fil4" points="7407,10452 7138,10452 7273,10676 "/>
   <polygon class="fil5" points="6989,10452 6719,10452 6854,10676 "/>
   <polygon class="fil5" points="6570,10452 6301,10452 6435,10676 "/>
   <polygon class="fil5" points="6151,10452 5882,10452 6017,10676 "/>
   <polygon class="fil0" points="8035,10706 7766,10706 7901,10482 "/>
   <polygon class="fil6" points="7616,10706 7347,10706 7482,10482 "/>
   <polygon class="fil4" points="7198,10706 6929,10706 7063,10482 "/>
   <polygon class="fil5" points="6779,10706 6510,10706 6645,10482 "/>
   <polygon class="fil5" points="6361,10706 6092,10706 6226,10482 "/>
   <polygon class="fil0" points="8244,10377 7975,10377 8110,10153 "/>
   <polygon class="fil3" points="7826,10377 7557,10377 7691,10153 "/>
   <polygon class="fil5" points="7407,10377 7138,10377 7273,10153 "/>
   <polygon class="fil5" points="6989,10377 6719,10377 6854,10153 "/>
   <polygon class="fil5" points="8035,10123 7766,10123 7901,10347 "/>
   <polygon class="fil5" points="7616,10123 7347,10123 7482,10347 "/>
   <polygon class="fil5" points="7198,10123 6929,10123 7063,10347 "/>
   <polygon class="fil5" points="6779,10123 6510,10123 6645,10347 "/>
   <polygon class="fil5" points="6361,10123 6092,10123 6226,10347 "/>
   <polygon class="fil5" points="8244,9794 7975,9794 8110,10018 "/>
   <polygon class="fil5" points="7826,9794 7557,9794 7691,10018 "/>
   <polygon class="fil5" points="7407,9794 7138,9794 7273,10018 "/>
   <polygon class="fil5" points="6989,9794 6719,9794 6854,10018 "/>
   <polygon class="fil5" points="8035,10048 7766,10048 7901,9824 "/>
   <polygon class="fil5" points="7616,10048 7347,10048 7482,9824 "/>
   <polygon class="fil5" points="7198,10048 6929,10048 7063,9824 "/>
   <polygon class="fil5" points="6779,10048 6510,10048 6645,9824 "/>
   <polygon class="fil5" points="6361,10048 6092,10048 6226,9824 "/>
  </g>
 </g>
</svg>
